<?xml version="1.0" encoding="utf-8"?><svg width="auto" height="4870" style="overflow:visible " version="1.1" xmlns="http://www.w3.org/2000/svg"><rect x="20" y="20" width="200" height="40" style="fill:white;stroke:black;stroke-width:1" /><text x="30" y="30" font-size="10" style="fill:blue">xs:schema</text><text x="30" y="40" font-size="8" style="fill:black">xmlns: http://uniovi.es</text><text x="30" y="50" font-size="8" style="fill:black">elementFormDefault: qualified</text><text x="30" y="60" font-size="8" style="fill:black">targetNamespace: http://uniovi.es</text><text x="30" y="70" font-size="8" style="fill:black">xmlns:xs: http://www.w3.org/2001/XMLSchema</text><rect x="240" y="20" width="200" height="40" style="fill:white;stroke:black;stroke-width:1" /><text x="250" y="30" font-size="10" style="fill:blue">xs:element</text><path d="M220 40 C240 40 220 40 240 40" style="fill:transparent;stroke:black" /><text x="250" y="40" font-size="8" style="fill:black">name: rutas</text><rect x="460" y="20" width="200" height="40" style="fill:white;stroke:black;stroke-width:1" /><text x="470" y="30" font-size="10" style="fill:blue">xs:complexType</text><path d="M440 40 C460 40 440 40 460 40" style="fill:transparent;stroke:black" /><rect x="680" y="20" width="200" height="40" style="fill:white;stroke:black;stroke-width:1" /><text x="690" y="30" font-size="10" style="fill:blue">xs:sequence</text><path d="M660 40 C680 40 660 40 680 40" style="fill:transparent;stroke:black" /><rect x="900" y="20" width="200" height="40" style="fill:white;stroke:black;stroke-width:1" /><text x="910" y="30" font-size="10" style="fill:blue">xs:element</text><path d="M880 40 C900 40 880 40 900 40" style="fill:transparent;stroke:black" /><text x="910" y="40" font-size="8" style="fill:black">minOccurs: 1</text><text x="910" y="50" font-size="8" style="fill:black">maxOccurs: unbounded</text><text x="910" y="60" font-size="8" style="fill:black">ref: ruta</text><rect x="240" y="220" width="200" height="40" style="fill:white;stroke:black;stroke-width:1" /><text x="250" y="230" font-size="10" style="fill:blue">xs:element</text><path d="M220 40 C240 40 220 240 240 240" style="fill:transparent;stroke:black" /><text x="250" y="240" font-size="8" style="fill:black">name: ruta</text><rect x="460" y="220" width="200" height="40" style="fill:white;stroke:black;stroke-width:1" /><text x="470" y="230" font-size="10" style="fill:blue">xs:complexType</text><path d="M440 240 C460 240 440 240 460 240" style="fill:transparent;stroke:black" /><rect x="680" y="220" width="200" height="40" style="fill:white;stroke:black;stroke-width:1" /><text x="690" y="230" font-size="10" style="fill:blue">xs:sequence</text><path d="M660 240 C680 240 660 240 680 240" style="fill:transparent;stroke:black" /><rect x="900" y="220" width="200" height="40" style="fill:white;stroke:black;stroke-width:1" /><text x="910" y="230" font-size="10" style="fill:blue">xs:element</text><path d="M880 240 C900 240 880 240 900 240" style="fill:transparent;stroke:black" /><text x="910" y="240" font-size="8" style="fill:black">ref: medio_transporte</text><rect x="900" y="270" width="200" height="40" style="fill:white;stroke:black;stroke-width:1" /><text x="910" y="280" font-size="10" style="fill:blue">xs:element</text><path d="M880 240 C900 240 880 290 900 290" style="fill:transparent;stroke:black" /><text x="910" y="290" font-size="8" style="fill:black">minOccurs: 0</text><text x="910" y="300" font-size="8" style="fill:black">maxOccurs: 1</text><text x="910" y="310" font-size="8" style="fill:black">ref: fecha_inicio</text><rect x="900" y="320" width="200" height="40" style="fill:white;stroke:black;stroke-width:1" /><text x="910" y="330" font-size="10" style="fill:blue">xs:element</text><path d="M880 240 C900 240 880 340 900 340" style="fill:transparent;stroke:black" /><text x="910" y="340" font-size="8" style="fill:black">minOccurs: 0</text><text x="910" y="350" font-size="8" style="fill:black">maxOccurs: 1</text><text x="910" y="360" font-size="8" style="fill:black">ref: hora_inicio</text><rect x="900" y="370" width="200" height="40" style="fill:white;stroke:black;stroke-width:1" /><text x="910" y="380" font-size="10" style="fill:blue">xs:element</text><path d="M880 240 C900 240 880 390 900 390" style="fill:transparent;stroke:black" /><text x="910" y="390" font-size="8" style="fill:black">ref: duracion</text><rect x="900" y="420" width="200" height="40" style="fill:white;stroke:black;stroke-width:1" /><text x="910" y="430" font-size="10" style="fill:blue">xs:element</text><path d="M880 240 C900 240 880 440 900 440" style="fill:transparent;stroke:black" /><text x="910" y="440" font-size="8" style="fill:black">ref: agencia</text><rect x="900" y="470" width="200" height="40" style="fill:white;stroke:black;stroke-width:1" /><text x="910" y="480" font-size="10" style="fill:blue">xs:element</text><path d="M880 240 C900 240 880 490 900 490" style="fill:transparent;stroke:black" /><text x="910" y="490" font-size="8" style="fill:black">ref: descripcion</text><rect x="900" y="520" width="200" height="40" style="fill:white;stroke:black;stroke-width:1" /><text x="910" y="530" font-size="10" style="fill:blue">xs:element</text><path d="M880 240 C900 240 880 540 900 540" style="fill:transparent;stroke:black" /><text x="910" y="540" font-size="8" style="fill:black">ref: personas_adecuadas</text><rect x="900" y="570" width="200" height="40" style="fill:white;stroke:black;stroke-width:1" /><text x="910" y="580" font-size="10" style="fill:blue">xs:element</text><path d="M880 240 C900 240 880 590 900 590" style="fill:transparent;stroke:black" /><text x="910" y="590" font-size="8" style="fill:black">ref: inicio</text><rect x="900" y="620" width="200" height="40" style="fill:white;stroke:black;stroke-width:1" /><text x="910" y="630" font-size="10" style="fill:blue">xs:element</text><path d="M880 240 C900 240 880 640 900 640" style="fill:transparent;stroke:black" /><text x="910" y="640" font-size="8" style="fill:black">ref: referencias</text><rect x="900" y="670" width="200" height="40" style="fill:white;stroke:black;stroke-width:1" /><text x="910" y="680" font-size="10" style="fill:blue">xs:element</text><path d="M880 240 C900 240 880 690 900 690" style="fill:transparent;stroke:black" /><text x="910" y="690" font-size="8" style="fill:black">ref: recomendacion</text><rect x="900" y="720" width="200" height="40" style="fill:white;stroke:black;stroke-width:1" /><text x="910" y="730" font-size="10" style="fill:blue">xs:element</text><path d="M880 240 C900 240 880 740 900 740" style="fill:transparent;stroke:black" /><text x="910" y="740" font-size="8" style="fill:black">ref: hitos</text><rect x="900" y="770" width="200" height="40" style="fill:white;stroke:black;stroke-width:1" /><text x="910" y="780" font-size="10" style="fill:blue">xs:element</text><path d="M880 240 C900 240 880 790 900 790" style="fill:transparent;stroke:black" /><text x="910" y="790" font-size="8" style="fill:black">ref: planimetria</text><rect x="900" y="820" width="200" height="40" style="fill:white;stroke:black;stroke-width:1" /><text x="910" y="830" font-size="10" style="fill:blue">xs:element</text><path d="M880 240 C900 240 880 840 900 840" style="fill:transparent;stroke:black" /><text x="910" y="840" font-size="8" style="fill:black">ref: altimetria</text><rect x="680" y="920" width="200" height="40" style="fill:white;stroke:black;stroke-width:1" /><text x="690" y="930" font-size="10" style="fill:blue">xs:attribute</text><path d="M660 240 C680 240 660 940 680 940" style="fill:transparent;stroke:black" /><text x="690" y="940" font-size="8" style="fill:black">name: nombre</text><text x="690" y="950" font-size="8" style="fill:black">type: xs:string</text><text x="690" y="960" font-size="8" style="fill:black">use: required</text><rect x="680" y="970" width="200" height="40" style="fill:white;stroke:black;stroke-width:1" /><text x="690" y="980" font-size="10" style="fill:blue">xs:attribute</text><path d="M660 240 C680 240 660 990 680 990" style="fill:transparent;stroke:black" /><text x="690" y="990" font-size="8" style="fill:black">name: tipo</text><text x="690" y="1000" font-size="8" style="fill:black">type: xs:string</text><text x="690" y="1010" font-size="8" style="fill:black">use: required</text><rect x="240" y="1120" width="200" height="40" style="fill:white;stroke:black;stroke-width:1" /><text x="250" y="1130" font-size="10" style="fill:blue">xs:element</text><path d="M220 40 C240 40 220 1140 240 1140" style="fill:transparent;stroke:black" /><text x="250" y="1140" font-size="8" style="fill:black">name: medio_transporte</text><text x="250" y="1150" font-size="8" style="fill:black">type: xs:string</text><rect x="240" y="1170" width="200" height="40" style="fill:white;stroke:black;stroke-width:1" /><text x="250" y="1180" font-size="10" style="fill:blue">xs:element</text><path d="M220 40 C240 40 220 1190 240 1190" style="fill:transparent;stroke:black" /><text x="250" y="1190" font-size="8" style="fill:black">name: fecha_inicio</text><text x="250" y="1200" font-size="8" style="fill:black">type: xs:date</text><rect x="240" y="1220" width="200" height="40" style="fill:white;stroke:black;stroke-width:1" /><text x="250" y="1230" font-size="10" style="fill:blue">xs:element</text><path d="M220 40 C240 40 220 1240 240 1240" style="fill:transparent;stroke:black" /><text x="250" y="1240" font-size="8" style="fill:black">name: hora_inicio</text><text x="250" y="1250" font-size="8" style="fill:black">type: xs:time</text><rect x="240" y="1270" width="200" height="40" style="fill:white;stroke:black;stroke-width:1" /><text x="250" y="1280" font-size="10" style="fill:blue">xs:element</text><path d="M220 40 C240 40 220 1290 240 1290" style="fill:transparent;stroke:black" /><text x="250" y="1290" font-size="8" style="fill:black">name: duracion</text><text x="250" y="1300" font-size="8" style="fill:black">type: xs:string</text><rect x="240" y="1320" width="200" height="40" style="fill:white;stroke:black;stroke-width:1" /><text x="250" y="1330" font-size="10" style="fill:blue">xs:element</text><path d="M220 40 C240 40 220 1340 240 1340" style="fill:transparent;stroke:black" /><text x="250" y="1340" font-size="8" style="fill:black">name: agencia</text><text x="250" y="1350" font-size="8" style="fill:black">type: xs:string</text><rect x="240" y="1370" width="200" height="40" style="fill:white;stroke:black;stroke-width:1" /><text x="250" y="1380" font-size="10" style="fill:blue">xs:element</text><path d="M220 40 C240 40 220 1390 240 1390" style="fill:transparent;stroke:black" /><text x="250" y="1390" font-size="8" style="fill:black">name: descripcion</text><text x="250" y="1400" font-size="8" style="fill:black">type: xs:string</text><rect x="240" y="1420" width="200" height="40" style="fill:white;stroke:black;stroke-width:1" /><text x="250" y="1430" font-size="10" style="fill:blue">xs:element</text><path d="M220 40 C240 40 220 1440 240 1440" style="fill:transparent;stroke:black" /><text x="250" y="1440" font-size="8" style="fill:black">name: personas_adecuadas</text><text x="250" y="1450" font-size="8" style="fill:black">type: xs:string</text><rect x="240" y="1470" width="200" height="40" style="fill:white;stroke:black;stroke-width:1" /><text x="250" y="1480" font-size="10" style="fill:blue">xs:element</text><path d="M220 40 C240 40 220 1490 240 1490" style="fill:transparent;stroke:black" /><text x="250" y="1490" font-size="8" style="fill:black">name: inicio</text><rect x="460" y="1470" width="200" height="40" style="fill:white;stroke:black;stroke-width:1" /><text x="470" y="1480" font-size="10" style="fill:blue">xs:complexType</text><path d="M440 1490 C460 1490 440 1490 460 1490" style="fill:transparent;stroke:black" /><rect x="680" y="1470" width="200" height="40" style="fill:white;stroke:black;stroke-width:1" /><text x="690" y="1480" font-size="10" style="fill:blue">xs:sequence</text><path d="M660 1490 C680 1490 660 1490 680 1490" style="fill:transparent;stroke:black" /><rect x="900" y="1470" width="200" height="40" style="fill:white;stroke:black;stroke-width:1" /><text x="910" y="1480" font-size="10" style="fill:blue">xs:element</text><path d="M880 1490 C900 1490 880 1490 900 1490" style="fill:transparent;stroke:black" /><text x="910" y="1490" font-size="8" style="fill:black">ref: lugar</text><rect x="900" y="1520" width="200" height="40" style="fill:white;stroke:black;stroke-width:1" /><text x="910" y="1530" font-size="10" style="fill:blue">xs:element</text><path d="M880 1490 C900 1490 880 1540 900 1540" style="fill:transparent;stroke:black" /><text x="910" y="1540" font-size="8" style="fill:black">ref: direccion</text><rect x="900" y="1570" width="200" height="40" style="fill:white;stroke:black;stroke-width:1" /><text x="910" y="1580" font-size="10" style="fill:blue">xs:element</text><path d="M880 1490 C900 1490 880 1590 900 1590" style="fill:transparent;stroke:black" /><text x="910" y="1590" font-size="8" style="fill:black">ref: coordenadas</text><rect x="240" y="1770" width="200" height="40" style="fill:white;stroke:black;stroke-width:1" /><text x="250" y="1780" font-size="10" style="fill:blue">xs:element</text><path d="M220 40 C240 40 220 1790 240 1790" style="fill:transparent;stroke:black" /><text x="250" y="1790" font-size="8" style="fill:black">name: lugar</text><text x="250" y="1800" font-size="8" style="fill:black">type: xs:string</text><rect x="240" y="1820" width="200" height="40" style="fill:white;stroke:black;stroke-width:1" /><text x="250" y="1830" font-size="10" style="fill:blue">xs:element</text><path d="M220 40 C240 40 220 1840 240 1840" style="fill:transparent;stroke:black" /><text x="250" y="1840" font-size="8" style="fill:black">name: direccion</text><text x="250" y="1850" font-size="8" style="fill:black">type: xs:string</text><rect x="240" y="1870" width="200" height="40" style="fill:white;stroke:black;stroke-width:1" /><text x="250" y="1880" font-size="10" style="fill:blue">xs:element</text><path d="M220 40 C240 40 220 1890 240 1890" style="fill:transparent;stroke:black" /><text x="250" y="1890" font-size="8" style="fill:black">name: coordenadas</text><rect x="460" y="1870" width="200" height="40" style="fill:white;stroke:black;stroke-width:1" /><text x="470" y="1880" font-size="10" style="fill:blue">xs:complexType</text><path d="M440 1890 C460 1890 440 1890 460 1890" style="fill:transparent;stroke:black" /><rect x="680" y="1870" width="200" height="40" style="fill:white;stroke:black;stroke-width:1" /><text x="690" y="1880" font-size="10" style="fill:blue">xs:sequence</text><path d="M660 1890 C680 1890 660 1890 680 1890" style="fill:transparent;stroke:black" /><rect x="900" y="1870" width="200" height="40" style="fill:white;stroke:black;stroke-width:1" /><text x="910" y="1880" font-size="10" style="fill:blue">xs:element</text><path d="M880 1890 C900 1890 880 1890 900 1890" style="fill:transparent;stroke:black" /><text x="910" y="1890" font-size="8" style="fill:black">name: latitud</text><rect x="1120" y="1870" width="200" height="40" style="fill:white;stroke:black;stroke-width:1" /><text x="1130" y="1880" font-size="10" style="fill:blue">xs:simpleType</text><path d="M1100 1890 C1120 1890 1100 1890 1120 1890" style="fill:transparent;stroke:black" /><rect x="1340" y="1870" width="200" height="40" style="fill:white;stroke:black;stroke-width:1" /><text x="1350" y="1880" font-size="10" style="fill:blue">xs:restriction</text><path d="M1320 1890 C1340 1890 1320 1890 1340 1890" style="fill:transparent;stroke:black" /><text x="1350" y="1890" font-size="8" style="fill:black">base: xs:decimal</text><rect x="1560" y="1870" width="200" height="40" style="fill:white;stroke:black;stroke-width:1" /><text x="1570" y="1880" font-size="10" style="fill:blue">xs:minInclusive</text><path d="M1540 1890 C1560 1890 1540 1890 1560 1890" style="fill:transparent;stroke:black" /><text x="1570" y="1890" font-size="8" style="fill:black">value: -90</text><rect x="1560" y="1920" width="200" height="40" style="fill:white;stroke:black;stroke-width:1" /><text x="1570" y="1930" font-size="10" style="fill:blue">xs:maxInclusive</text><path d="M1540 1890 C1560 1890 1540 1940 1560 1940" style="fill:transparent;stroke:black" /><text x="1570" y="1940" font-size="8" style="fill:black">value: 90</text><rect x="900" y="2120" width="200" height="40" style="fill:white;stroke:black;stroke-width:1" /><text x="910" y="2130" font-size="10" style="fill:blue">xs:element</text><path d="M880 1890 C900 1890 880 2140 900 2140" style="fill:transparent;stroke:black" /><text x="910" y="2140" font-size="8" style="fill:black">name: longitud</text><rect x="1120" y="2120" width="200" height="40" style="fill:white;stroke:black;stroke-width:1" /><text x="1130" y="2130" font-size="10" style="fill:blue">xs:simpleType</text><path d="M1100 2140 C1120 2140 1100 2140 1120 2140" style="fill:transparent;stroke:black" /><rect x="1340" y="2120" width="200" height="40" style="fill:white;stroke:black;stroke-width:1" /><text x="1350" y="2130" font-size="10" style="fill:blue">xs:restriction</text><path d="M1320 2140 C1340 2140 1320 2140 1340 2140" style="fill:transparent;stroke:black" /><text x="1350" y="2140" font-size="8" style="fill:black">base: xs:decimal</text><rect x="1560" y="2120" width="200" height="40" style="fill:white;stroke:black;stroke-width:1" /><text x="1570" y="2130" font-size="10" style="fill:blue">xs:minInclusive</text><path d="M1540 2140 C1560 2140 1540 2140 1560 2140" style="fill:transparent;stroke:black" /><text x="1570" y="2140" font-size="8" style="fill:black">value: -180</text><rect x="1560" y="2170" width="200" height="40" style="fill:white;stroke:black;stroke-width:1" /><text x="1570" y="2180" font-size="10" style="fill:blue">xs:maxInclusive</text><path d="M1540 2140 C1560 2140 1540 2190 1560 2190" style="fill:transparent;stroke:black" /><text x="1570" y="2190" font-size="8" style="fill:black">value: 180</text><rect x="900" y="2370" width="200" height="40" style="fill:white;stroke:black;stroke-width:1" /><text x="910" y="2380" font-size="10" style="fill:blue">xs:element</text><path d="M880 1890 C900 1890 880 2390 900 2390" style="fill:transparent;stroke:black" /><text x="910" y="2390" font-size="8" style="fill:black">name: altitud</text><rect x="1120" y="2370" width="200" height="40" style="fill:white;stroke:black;stroke-width:1" /><text x="1130" y="2380" font-size="10" style="fill:blue">xs:simpleType</text><path d="M1100 2390 C1120 2390 1100 2390 1120 2390" style="fill:transparent;stroke:black" /><rect x="1340" y="2370" width="200" height="40" style="fill:white;stroke:black;stroke-width:1" /><text x="1350" y="2380" font-size="10" style="fill:blue">xs:restriction</text><path d="M1320 2390 C1340 2390 1320 2390 1340 2390" style="fill:transparent;stroke:black" /><text x="1350" y="2390" font-size="8" style="fill:black">base: xs:decimal</text><rect x="1560" y="2370" width="200" height="40" style="fill:white;stroke:black;stroke-width:1" /><text x="1570" y="2380" font-size="10" style="fill:blue">xs:minInclusive</text><path d="M1540 2390 C1560 2390 1540 2390 1560 2390" style="fill:transparent;stroke:black" /><text x="1570" y="2390" font-size="8" style="fill:black">value: 0</text><rect x="1560" y="2420" width="200" height="40" style="fill:white;stroke:black;stroke-width:1" /><text x="1570" y="2430" font-size="10" style="fill:blue">xs:maxInclusive</text><path d="M1540 2390 C1560 2390 1540 2440 1560 2440" style="fill:transparent;stroke:black" /><text x="1570" y="2440" font-size="8" style="fill:black">value: 8000</text><rect x="240" y="2770" width="200" height="40" style="fill:white;stroke:black;stroke-width:1" /><text x="250" y="2780" font-size="10" style="fill:blue">xs:element</text><path d="M220 40 C240 40 220 2790 240 2790" style="fill:transparent;stroke:black" /><text x="250" y="2790" font-size="8" style="fill:black">name: referencias</text><rect x="460" y="2770" width="200" height="40" style="fill:white;stroke:black;stroke-width:1" /><text x="470" y="2780" font-size="10" style="fill:blue">xs:complexType</text><path d="M440 2790 C460 2790 440 2790 460 2790" style="fill:transparent;stroke:black" /><rect x="680" y="2770" width="200" height="40" style="fill:white;stroke:black;stroke-width:1" /><text x="690" y="2780" font-size="10" style="fill:blue">xs:sequence</text><path d="M660 2790 C680 2790 660 2790 680 2790" style="fill:transparent;stroke:black" /><rect x="900" y="2770" width="200" height="40" style="fill:white;stroke:black;stroke-width:1" /><text x="910" y="2780" font-size="10" style="fill:blue">xs:element</text><path d="M880 2790 C900 2790 880 2790 900 2790" style="fill:transparent;stroke:black" /><text x="910" y="2790" font-size="8" style="fill:black">minOccurs: 3</text><text x="910" y="2800" font-size="8" style="fill:black">maxOccurs: unbounded</text><text x="910" y="2810" font-size="8" style="fill:black">ref: referencia</text><rect x="240" y="2970" width="200" height="40" style="fill:white;stroke:black;stroke-width:1" /><text x="250" y="2980" font-size="10" style="fill:blue">xs:element</text><path d="M220 40 C240 40 220 2990 240 2990" style="fill:transparent;stroke:black" /><text x="250" y="2990" font-size="8" style="fill:black">name: referencia</text><text x="250" y="3000" font-size="8" style="fill:black">type: xs:string</text><rect x="240" y="3020" width="200" height="40" style="fill:white;stroke:black;stroke-width:1" /><text x="250" y="3030" font-size="10" style="fill:blue">xs:element</text><path d="M220 40 C240 40 220 3040 240 3040" style="fill:transparent;stroke:black" /><text x="250" y="3040" font-size="8" style="fill:black">name: recomendacion</text><text x="250" y="3050" font-size="8" style="fill:black">type: xs:string</text><rect x="240" y="3070" width="200" height="40" style="fill:white;stroke:black;stroke-width:1" /><text x="250" y="3080" font-size="10" style="fill:blue">xs:element</text><path d="M220 40 C240 40 220 3090 240 3090" style="fill:transparent;stroke:black" /><text x="250" y="3090" font-size="8" style="fill:black">name: hitos</text><rect x="460" y="3070" width="200" height="40" style="fill:white;stroke:black;stroke-width:1" /><text x="470" y="3080" font-size="10" style="fill:blue">xs:complexType</text><path d="M440 3090 C460 3090 440 3090 460 3090" style="fill:transparent;stroke:black" /><rect x="680" y="3070" width="200" height="40" style="fill:white;stroke:black;stroke-width:1" /><text x="690" y="3080" font-size="10" style="fill:blue">xs:sequence</text><path d="M660 3090 C680 3090 660 3090 680 3090" style="fill:transparent;stroke:black" /><rect x="900" y="3070" width="200" height="40" style="fill:white;stroke:black;stroke-width:1" /><text x="910" y="3080" font-size="10" style="fill:blue">xs:element</text><path d="M880 3090 C900 3090 880 3090 900 3090" style="fill:transparent;stroke:black" /><text x="910" y="3090" font-size="8" style="fill:black">minOccurs: 5</text><text x="910" y="3100" font-size="8" style="fill:black">maxOccurs: unbounded</text><text x="910" y="3110" font-size="8" style="fill:black">ref: hito</text><rect x="240" y="3270" width="200" height="40" style="fill:white;stroke:black;stroke-width:1" /><text x="250" y="3280" font-size="10" style="fill:blue">xs:element</text><path d="M220 40 C240 40 220 3290 240 3290" style="fill:transparent;stroke:black" /><text x="250" y="3290" font-size="8" style="fill:black">name: hito</text><rect x="460" y="3270" width="200" height="40" style="fill:white;stroke:black;stroke-width:1" /><text x="470" y="3280" font-size="10" style="fill:blue">xs:complexType</text><path d="M440 3290 C460 3290 440 3290 460 3290" style="fill:transparent;stroke:black" /><rect x="680" y="3270" width="200" height="40" style="fill:white;stroke:black;stroke-width:1" /><text x="690" y="3280" font-size="10" style="fill:blue">xs:sequence</text><path d="M660 3290 C680 3290 660 3290 680 3290" style="fill:transparent;stroke:black" /><rect x="900" y="3270" width="200" height="40" style="fill:white;stroke:black;stroke-width:1" /><text x="910" y="3280" font-size="10" style="fill:blue">xs:element</text><path d="M880 3290 C900 3290 880 3290 900 3290" style="fill:transparent;stroke:black" /><text x="910" y="3290" font-size="8" style="fill:black">ref: nombre</text><rect x="900" y="3320" width="200" height="40" style="fill:white;stroke:black;stroke-width:1" /><text x="910" y="3330" font-size="10" style="fill:blue">xs:element</text><path d="M880 3290 C900 3290 880 3340 900 3340" style="fill:transparent;stroke:black" /><text x="910" y="3340" font-size="8" style="fill:black">ref: descripcion</text><rect x="900" y="3370" width="200" height="40" style="fill:white;stroke:black;stroke-width:1" /><text x="910" y="3380" font-size="10" style="fill:blue">xs:element</text><path d="M880 3290 C900 3290 880 3390 900 3390" style="fill:transparent;stroke:black" /><text x="910" y="3390" font-size="8" style="fill:black">ref: coordenadas</text><rect x="900" y="3420" width="200" height="40" style="fill:white;stroke:black;stroke-width:1" /><text x="910" y="3430" font-size="10" style="fill:blue">xs:element</text><path d="M880 3290 C900 3290 880 3440 900 3440" style="fill:transparent;stroke:black" /><text x="910" y="3440" font-size="8" style="fill:black">ref: distancia</text><rect x="900" y="3470" width="200" height="40" style="fill:white;stroke:black;stroke-width:1" /><text x="910" y="3480" font-size="10" style="fill:blue">xs:element</text><path d="M880 3290 C900 3290 880 3490 900 3490" style="fill:transparent;stroke:black" /><text x="910" y="3490" font-size="8" style="fill:black">ref: fotos</text><rect x="900" y="3520" width="200" height="40" style="fill:white;stroke:black;stroke-width:1" /><text x="910" y="3530" font-size="10" style="fill:blue">xs:element</text><path d="M880 3290 C900 3290 880 3540 900 3540" style="fill:transparent;stroke:black" /><text x="910" y="3540" font-size="8" style="fill:black">minOccurs: 0</text><text x="910" y="3550" font-size="8" style="fill:black">maxOccurs: 1</text><text x="910" y="3560" font-size="8" style="fill:black">ref: videos</text><rect x="240" y="3720" width="200" height="40" style="fill:white;stroke:black;stroke-width:1" /><text x="250" y="3730" font-size="10" style="fill:blue">xs:element</text><path d="M220 40 C240 40 220 3740 240 3740" style="fill:transparent;stroke:black" /><text x="250" y="3740" font-size="8" style="fill:black">name: nombre</text><text x="250" y="3750" font-size="8" style="fill:black">type: xs:string</text><rect x="240" y="3770" width="200" height="40" style="fill:white;stroke:black;stroke-width:1" /><text x="250" y="3780" font-size="10" style="fill:blue">xs:element</text><path d="M220 40 C240 40 220 3790 240 3790" style="fill:transparent;stroke:black" /><text x="250" y="3790" font-size="8" style="fill:black">name: distancia</text><rect x="460" y="3770" width="200" height="40" style="fill:white;stroke:black;stroke-width:1" /><text x="470" y="3780" font-size="10" style="fill:blue">xs:complexType</text><path d="M440 3790 C460 3790 440 3790 460 3790" style="fill:transparent;stroke:black" /><rect x="680" y="3770" width="200" height="40" style="fill:white;stroke:black;stroke-width:1" /><text x="690" y="3780" font-size="10" style="fill:blue">xs:simpleContent</text><path d="M660 3790 C680 3790 660 3790 680 3790" style="fill:transparent;stroke:black" /><rect x="900" y="3770" width="200" height="40" style="fill:white;stroke:black;stroke-width:1" /><text x="910" y="3780" font-size="10" style="fill:blue">xs:extension</text><path d="M880 3790 C900 3790 880 3790 900 3790" style="fill:transparent;stroke:black" /><text x="910" y="3790" font-size="8" style="fill:black">base: xs:float</text><rect x="1120" y="3770" width="200" height="40" style="fill:white;stroke:black;stroke-width:1" /><text x="1130" y="3780" font-size="10" style="fill:blue">xs:attribute</text><path d="M1100 3790 C1120 3790 1100 3790 1120 3790" style="fill:transparent;stroke:black" /><text x="1130" y="3790" font-size="8" style="fill:black">name: unidad</text><text x="1130" y="3800" font-size="8" style="fill:black">type: xs:string</text><text x="1130" y="3810" font-size="8" style="fill:black">use: required</text><rect x="240" y="4020" width="200" height="40" style="fill:white;stroke:black;stroke-width:1" /><text x="250" y="4030" font-size="10" style="fill:blue">xs:element</text><path d="M220 40 C240 40 220 4040 240 4040" style="fill:transparent;stroke:black" /><text x="250" y="4040" font-size="8" style="fill:black">name: fotos</text><rect x="460" y="4020" width="200" height="40" style="fill:white;stroke:black;stroke-width:1" /><text x="470" y="4030" font-size="10" style="fill:blue">xs:complexType</text><path d="M440 4040 C460 4040 440 4040 460 4040" style="fill:transparent;stroke:black" /><rect x="680" y="4020" width="200" height="40" style="fill:white;stroke:black;stroke-width:1" /><text x="690" y="4030" font-size="10" style="fill:blue">xs:sequence</text><path d="M660 4040 C680 4040 660 4040 680 4040" style="fill:transparent;stroke:black" /><rect x="900" y="4020" width="200" height="40" style="fill:white;stroke:black;stroke-width:1" /><text x="910" y="4030" font-size="10" style="fill:blue">xs:element</text><path d="M880 4040 C900 4040 880 4040 900 4040" style="fill:transparent;stroke:black" /><text x="910" y="4040" font-size="8" style="fill:black">minOccurs: 1</text><text x="910" y="4050" font-size="8" style="fill:black">maxOccurs: 5</text><text x="910" y="4060" font-size="8" style="fill:black">ref: foto</text><rect x="240" y="4220" width="200" height="40" style="fill:white;stroke:black;stroke-width:1" /><text x="250" y="4230" font-size="10" style="fill:blue">xs:element</text><path d="M220 40 C240 40 220 4240 240 4240" style="fill:transparent;stroke:black" /><text x="250" y="4240" font-size="8" style="fill:black">name: foto</text><text x="250" y="4250" font-size="8" style="fill:black">type: xs:string</text><rect x="240" y="4270" width="200" height="40" style="fill:white;stroke:black;stroke-width:1" /><text x="250" y="4280" font-size="10" style="fill:blue">xs:element</text><path d="M220 40 C240 40 220 4290 240 4290" style="fill:transparent;stroke:black" /><text x="250" y="4290" font-size="8" style="fill:black">name: videos</text><rect x="460" y="4270" width="200" height="40" style="fill:white;stroke:black;stroke-width:1" /><text x="470" y="4280" font-size="10" style="fill:blue">xs:complexType</text><path d="M440 4290 C460 4290 440 4290 460 4290" style="fill:transparent;stroke:black" /><rect x="680" y="4270" width="200" height="40" style="fill:white;stroke:black;stroke-width:1" /><text x="690" y="4280" font-size="10" style="fill:blue">xs:sequence</text><path d="M660 4290 C680 4290 660 4290 680 4290" style="fill:transparent;stroke:black" /><rect x="900" y="4270" width="200" height="40" style="fill:white;stroke:black;stroke-width:1" /><text x="910" y="4280" font-size="10" style="fill:blue">xs:element</text><path d="M880 4290 C900 4290 880 4290 900 4290" style="fill:transparent;stroke:black" /><text x="910" y="4290" font-size="8" style="fill:black">minOccurs: 0</text><text x="910" y="4300" font-size="8" style="fill:black">maxOccurs: 3</text><text x="910" y="4310" font-size="8" style="fill:black">ref: video</text><rect x="240" y="4470" width="200" height="40" style="fill:white;stroke:black;stroke-width:1" /><text x="250" y="4480" font-size="10" style="fill:blue">xs:element</text><path d="M220 40 C240 40 220 4490 240 4490" style="fill:transparent;stroke:black" /><text x="250" y="4490" font-size="8" style="fill:black">name: video</text><text x="250" y="4500" font-size="8" style="fill:black">type: xs:string</text><rect x="240" y="4520" width="200" height="40" style="fill:white;stroke:black;stroke-width:1" /><text x="250" y="4530" font-size="10" style="fill:blue">xs:element</text><path d="M220 40 C240 40 220 4540 240 4540" style="fill:transparent;stroke:black" /><text x="250" y="4540" font-size="8" style="fill:black">name: planimetria</text><rect x="460" y="4520" width="200" height="40" style="fill:white;stroke:black;stroke-width:1" /><text x="470" y="4530" font-size="10" style="fill:blue">xs:complexType</text><path d="M440 4540 C460 4540 440 4540 460 4540" style="fill:transparent;stroke:black" /><rect x="680" y="4520" width="200" height="40" style="fill:white;stroke:black;stroke-width:1" /><text x="690" y="4530" font-size="10" style="fill:blue">xs:attribute</text><path d="M660 4540 C680 4540 660 4540 680 4540" style="fill:transparent;stroke:black" /><text x="690" y="4540" font-size="8" style="fill:black">name: archivo_kml</text><text x="690" y="4550" font-size="8" style="fill:black">type: xs:string</text><text x="690" y="4560" font-size="8" style="fill:black">use: required</text><rect x="240" y="4670" width="200" height="40" style="fill:white;stroke:black;stroke-width:1" /><text x="250" y="4680" font-size="10" style="fill:blue">xs:element</text><path d="M220 40 C240 40 220 4690 240 4690" style="fill:transparent;stroke:black" /><text x="250" y="4690" font-size="8" style="fill:black">name: altimetria</text><rect x="460" y="4670" width="200" height="40" style="fill:white;stroke:black;stroke-width:1" /><text x="470" y="4680" font-size="10" style="fill:blue">xs:complexType</text><path d="M440 4690 C460 4690 440 4690 460 4690" style="fill:transparent;stroke:black" /><rect x="680" y="4670" width="200" height="40" style="fill:white;stroke:black;stroke-width:1" /><text x="690" y="4680" font-size="10" style="fill:blue">xs:attribute</text><path d="M660 4690 C680 4690 660 4690 680 4690" style="fill:transparent;stroke:black" /><text x="690" y="4690" font-size="8" style="fill:black">name: archivo_svg</text><text x="690" y="4700" font-size="8" style="fill:black">type: xs:string</text><text x="690" y="4710" font-size="8" style="fill:black">use: required</text></svg>